<svg xmlns="http://www.w3.org/2000/svg" width="16" height="16" viewBox="0 0 16 16"><g fill="#222"><path d="m 4.550781 1 c -1.9375 0 -3.5 1.5625 -3.5 3.5 s 1.5625 3.5 3.5 3.5 h 7 c 1.941407 0 3.5 -1.5625 3.5 -3.5 s -1.558593 -3.5 -3.5 -3.5 z m 7 1 c 1.386719 0 2.5 1.113281 2.5 2.5 c 0 1.382812 -1.113281 2.5 -2.5 2.5 c -1.382812 0 -2.5 -1.117188 -2.5 -2.5 c 0 -1.386719 1.117188 -2.5 2.5 -2.5 z m 0 0"/><path fill-opacity=".349" d="m 4.550781 9 c -1.9375 0 -3.5 1.5625 -3.5 3.5 s 1.5625 3.5 3.5 3.5 h 7 c 1.941407 0 3.5 -1.5625 3.5 -3.5 s -1.558593 -3.5 -3.5 -3.5 z m 0 1 c 1.386719 0 2.5 1.113281 2.5 2.5 c 0 1.382812 -1.113281 2.5 -2.5 2.5 c -1.382812 0 -2.5 -1.117188 -2.5 -2.5 c 0 -1.386719 1.117188 -2.5 2.5 -2.5 z m 0 0"/></g></svg>